<?xml version="1.0" encoding="utf-8"?>
<!-- Generator: Adobe Illustrator 22.1.0, SVG Export Plug-In . SVG Version: 6.00 Build 0)  -->
<svg version="1.1" id="Layer_1" xmlns="http://www.w3.org/2000/svg" xmlns:xlink="http://www.w3.org/1999/xlink" x="0px" y="0px"
	 viewBox="0 0 864 864" enable-background="new 0 0 864 864" xml:space="preserve">
<g>
	<path fill="#DDD6CC" d="M772.877,108.506l-21.668-5.634l-96.68-26.038H417.005l-96.68,26.038H82.8v309.502h0v96.68h237.525v-96.68
		h0l25.654,25.654c2.777,2.777,6.543,4.337,10.47,4.337h24.432c3.927,0,7.694-1.56,10.47-4.337l25.654-25.654l25.654,25.654
		c2.777,2.777,6.543,4.337,10.47,4.337h165.277c3.927,0,7.693-1.56,10.47-4.337l25.654-25.654l25.654,25.654
		c2.777,2.777,6.543,4.337,10.47,4.337h24.432c3.927,0,7.694-1.56,10.47-4.337l25.654-25.654l20.98-4.056
		c5.231-1.011,9.01-5.591,9.01-10.919V119.27C781.2,114.205,777.779,109.781,772.877,108.506z M368.665,139.434
		c3.877,0,7.02,3.143,7.02,7.02s-3.143,7.02-7.02,7.02c-3.877,0-7.02-3.143-7.02-7.02S364.788,139.434,368.665,139.434z
		 M702.87,139.434c3.877,0,7.02,3.143,7.02,7.02s-3.143,7.02-7.02,7.02s-7.02-3.143-7.02-7.02S698.993,139.434,702.87,139.434z"/>
	<path fill="none" stroke="#231F20" d="M654.53,86.025v11.207 M654.53,106.422v11.207 M654.53,126.818v11.207 M654.53,147.215
		v11.207 M654.53,167.612v11.207 M654.53,188.009v11.207 M654.53,208.406v11.207 M654.53,228.803v11.207 M654.53,249.2v11.207
		 M654.53,269.597v11.207 M654.53,289.994v11.207 M654.53,310.391v11.207 M654.53,330.787v11.207 M654.53,351.184v11.207
		 M654.53,371.581v11.207 M654.53,391.978v11.207 M417.005,86.025v11.207 M417.005,106.422v11.207 M417.005,126.818v11.207
		 M417.005,147.215v11.207 M417.005,167.612v11.207 M417.005,188.009v11.207 M417.005,208.406v11.207 M417.005,228.803v11.207
		 M417.005,249.2v11.207 M417.005,269.597v11.207 M417.005,289.994v11.207 M417.005,310.391v11.207 M417.005,330.787v11.207
		 M417.005,351.184v11.207 M417.005,371.581v11.207 M417.005,391.978v11.207 M320.325,112.523v11.768 M320.325,133.941v11.768
		 M320.325,155.359v11.768 M320.325,176.777l0,11.768 M320.325,198.195v11.768 M320.325,219.613v11.768 M320.325,241.031v11.768
		 M320.325,262.449v11.768 M320.325,283.867v11.768 M320.325,305.285v11.768 M320.325,326.703l0,11.768 M320.325,348.121v11.768
		 M320.325,369.539v11.768 M320.325,390.957v11.768 M310.979,412.375h-11.398 M290.236,412.375h-11.398 M269.492,412.375h-11.398
		 M248.749,412.375h-11.398 M228.005,412.375h-11.398 M207.261,412.375h-11.398 M186.518,412.375H175.12 M165.774,412.375h-11.398
		 M145.031,412.375h-11.398 M124.287,412.375H112.89 M103.544,412.375H92.146 M407.217,412.375h-11.936 M385.494,412.375h-11.936
		 M363.771,412.375h-11.936 M342.048,412.375h-11.936 M645.184,412.375h-11.398 M624.44,412.375h-11.398 M603.697,412.375h-11.398
		 M582.953,412.375h-11.398 M562.21,412.375h-11.398 M541.466,412.375h-11.398 M520.723,412.375h-11.398 M499.979,412.375h-11.398
		 M479.235,412.375h-11.398 M458.492,412.375h-11.398 M437.748,412.375h-11.398 M741.422,412.375h-11.936 M719.699,412.375h-11.936
		 M697.976,412.375H686.04 M676.253,412.375h-11.936 M751.209,112.523v11.768 M751.209,133.941v11.768 M751.209,155.359v11.768
		 M751.209,176.777v11.768 M751.209,198.195v11.768 M751.209,219.613v11.768 M751.209,241.031v11.768 M751.209,262.449v11.768
		 M751.209,283.867v11.768 M751.209,305.285v11.768 M751.209,326.703v11.768 M751.209,348.121v11.768 M751.209,369.539v11.768
		 M751.209,390.957v11.768"/>
</g>
</svg>
